<svg width="18" height="17" viewBox="0 0 18 17" fill="none" xmlns="http://www.w3.org/2000/svg">
<path d="M8.43326 0.630434C8.62004 0.0930977 9.37996 0.0930964 9.56674 0.630432L11.2141 5.36956C11.2965 5.6066 11.5177 5.76733 11.7686 5.77244L16.7848 5.87466C17.3536 5.88625 17.5884 6.60898 17.1351 6.95266L13.1369 9.98383C12.937 10.1354 12.8525 10.3955 12.9251 10.6357L14.378 15.438C14.5427 15.9825 13.928 16.4292 13.461 16.1042L9.34271 13.2385C9.13672 13.0951 8.86328 13.0951 8.65729 13.2385L4.53899 16.1042C4.07205 16.4292 3.45726 15.9825 3.62199 15.438L5.07487 10.6357C5.14754 10.3955 5.06305 10.1354 4.86307 9.98383L0.864938 6.95266C0.411619 6.60898 0.646446 5.88625 1.2152 5.87466L6.23143 5.77244C6.48233 5.76733 6.70355 5.6066 6.78594 5.36956L8.43326 0.630434Z" fill="#FED360"/>
</svg>
